<mxfile host="app.diagrams.net" modified="2022-05-16T15:09:18.699Z" agent="5.0 (X11; Linux x86_64) AppleWebKit/537.36 (KHTML, like Gecko) Chrome/101.0.4951.54 Safari/537.36" etag="gnXPFdXjbFveQzv7J1AB" version="18.0.6" type="github" pages="2">
  <diagram id="oRuBMAtsS_w17FjyVLIy" name="Arquivo de Cancelamento">
    <mxGraphModel dx="3140" dy="1943" grid="1" gridSize="10" guides="1" tooltips="1" connect="1" arrows="1" fold="1" page="1" pageScale="1" pageWidth="827" pageHeight="1169" math="0" shadow="0">
      <root>
        <mxCell id="0" />
        <mxCell id="1" parent="0" />
        <mxCell id="6nLXdioeBU52GA5kXLvm-5" value="" style="edgeStyle=orthogonalEdgeStyle;rounded=0;orthogonalLoop=1;jettySize=auto;html=1;" edge="1" parent="1" source="6nLXdioeBU52GA5kXLvm-1" target="6nLXdioeBU52GA5kXLvm-4">
          <mxGeometry relative="1" as="geometry" />
        </mxCell>
        <mxCell id="6nLXdioeBU52GA5kXLvm-1" value="INICIO" style="ellipse;whiteSpace=wrap;html=1;aspect=fixed;fillColor=#d5e8d4;strokeColor=#82b366;shadow=1;" vertex="1" parent="1">
          <mxGeometry x="40" y="20" width="80" height="80" as="geometry" />
        </mxCell>
        <mxCell id="6nLXdioeBU52GA5kXLvm-7" value="" style="edgeStyle=orthogonalEdgeStyle;rounded=0;orthogonalLoop=1;jettySize=auto;html=1;" edge="1" parent="1" source="6nLXdioeBU52GA5kXLvm-4">
          <mxGeometry relative="1" as="geometry">
            <mxPoint x="290" y="160" as="targetPoint" />
          </mxGeometry>
        </mxCell>
        <mxCell id="6nLXdioeBU52GA5kXLvm-4" value="Cancelamento" style="whiteSpace=wrap;html=1;fillColor=#ffe6cc;strokeColor=#d79b00;shadow=1;" vertex="1" parent="1">
          <mxGeometry x="230" y="30" width="120" height="60" as="geometry" />
        </mxCell>
        <mxCell id="6nLXdioeBU52GA5kXLvm-12" value="" style="edgeStyle=orthogonalEdgeStyle;rounded=0;orthogonalLoop=1;jettySize=auto;html=1;" edge="1" parent="1" target="6nLXdioeBU52GA5kXLvm-11">
          <mxGeometry relative="1" as="geometry">
            <mxPoint x="360" y="188" as="sourcePoint" />
          </mxGeometry>
        </mxCell>
        <mxCell id="6nLXdioeBU52GA5kXLvm-16" value="" style="edgeStyle=orthogonalEdgeStyle;rounded=0;orthogonalLoop=1;jettySize=auto;html=1;exitX=0.64;exitY=1.01;exitDx=0;exitDy=0;exitPerimeter=0;entryX=0.5;entryY=-0.012;entryDx=0;entryDy=0;entryPerimeter=0;" edge="1" parent="1" source="6nLXdioeBU52GA5kXLvm-8" target="6nLXdioeBU52GA5kXLvm-15">
          <mxGeometry relative="1" as="geometry">
            <mxPoint x="290" y="270" as="targetPoint" />
            <Array as="points">
              <mxPoint x="290" y="211" />
            </Array>
          </mxGeometry>
        </mxCell>
        <mxCell id="6nLXdioeBU52GA5kXLvm-8" value="&lt;h1&gt;SE&lt;/h1&gt;&lt;p&gt;Verifica se existem pagamentos pendentes.&lt;/p&gt;" style="text;html=1;strokeColor=none;fillColor=none;spacing=5;spacingTop=-20;whiteSpace=wrap;overflow=hidden;rounded=0;shadow=1;" vertex="1" parent="1">
          <mxGeometry x="170" y="130" width="190" height="80" as="geometry" />
        </mxCell>
        <mxCell id="6nLXdioeBU52GA5kXLvm-14" value="" style="edgeStyle=orthogonalEdgeStyle;rounded=0;orthogonalLoop=1;jettySize=auto;html=1;" edge="1" parent="1" source="6nLXdioeBU52GA5kXLvm-11" target="6nLXdioeBU52GA5kXLvm-13">
          <mxGeometry relative="1" as="geometry" />
        </mxCell>
        <mxCell id="6nLXdioeBU52GA5kXLvm-11" value="S" style="rhombus;whiteSpace=wrap;html=1;shadow=1;fillColor=#fff2cc;strokeColor=#d6b656;" vertex="1" parent="1">
          <mxGeometry x="495" y="148" width="80" height="80" as="geometry" />
        </mxCell>
        <mxCell id="6nLXdioeBU52GA5kXLvm-13" value="FIM" style="ellipse;whiteSpace=wrap;html=1;fillColor=#f8cecc;strokeColor=#b85450;shadow=1;" vertex="1" parent="1">
          <mxGeometry x="635" y="158" width="65" height="60" as="geometry" />
        </mxCell>
        <mxCell id="6nLXdioeBU52GA5kXLvm-19" value="" style="edgeStyle=orthogonalEdgeStyle;rounded=0;orthogonalLoop=1;jettySize=auto;html=1;" edge="1" parent="1" source="6nLXdioeBU52GA5kXLvm-15" target="6nLXdioeBU52GA5kXLvm-18">
          <mxGeometry relative="1" as="geometry" />
        </mxCell>
        <mxCell id="6nLXdioeBU52GA5kXLvm-15" value="Ñ" style="rhombus;whiteSpace=wrap;html=1;shadow=1;fillColor=#fff2cc;strokeColor=#d6b656;" vertex="1" parent="1">
          <mxGeometry x="250" y="280" width="80" height="80" as="geometry" />
        </mxCell>
        <mxCell id="6nLXdioeBU52GA5kXLvm-21" value="" style="edgeStyle=orthogonalEdgeStyle;rounded=0;orthogonalLoop=1;jettySize=auto;html=1;" edge="1" parent="1" source="6nLXdioeBU52GA5kXLvm-18" target="6nLXdioeBU52GA5kXLvm-20">
          <mxGeometry relative="1" as="geometry" />
        </mxCell>
        <mxCell id="6nLXdioeBU52GA5kXLvm-18" value="Gera o arquivo para cancelamento dos cartões na plataforma da alelo" style="rounded=1;whiteSpace=wrap;html=1;fillColor=#dae8fc;strokeColor=#6c8ebf;shadow=1;" vertex="1" parent="1">
          <mxGeometry x="190" y="450" width="200" height="60" as="geometry" />
        </mxCell>
        <mxCell id="6nLXdioeBU52GA5kXLvm-20" value="FIM" style="ellipse;whiteSpace=wrap;html=1;fillColor=#f8cecc;strokeColor=#b85450;rounded=1;shadow=1;" vertex="1" parent="1">
          <mxGeometry x="250" y="600" width="80" height="70" as="geometry" />
        </mxCell>
      </root>
    </mxGraphModel>
  </diagram>
  <diagram id="7ZGYmSLNvuRhOB1oaOWR" name="Confirmar Cancelamentos">
    <mxGraphModel dx="1713" dy="1060" grid="1" gridSize="10" guides="1" tooltips="1" connect="1" arrows="1" fold="1" page="1" pageScale="1" pageWidth="827" pageHeight="1169" math="0" shadow="0">
      <root>
        <mxCell id="0" />
        <mxCell id="1" parent="0" />
        <mxCell id="ABQzy52q0oZLWMpHh-sN-3" value="" style="edgeStyle=orthogonalEdgeStyle;rounded=0;orthogonalLoop=1;jettySize=auto;html=1;" edge="1" parent="1" source="ABQzy52q0oZLWMpHh-sN-1" target="ABQzy52q0oZLWMpHh-sN-2">
          <mxGeometry relative="1" as="geometry" />
        </mxCell>
        <mxCell id="ABQzy52q0oZLWMpHh-sN-1" value="INICIO" style="ellipse;whiteSpace=wrap;html=1;shadow=1;fillColor=#d5e8d4;strokeColor=#82b366;" vertex="1" parent="1">
          <mxGeometry x="20" y="20" width="80" height="70" as="geometry" />
        </mxCell>
        <mxCell id="ABQzy52q0oZLWMpHh-sN-6" value="" style="edgeStyle=orthogonalEdgeStyle;rounded=0;orthogonalLoop=1;jettySize=auto;html=1;" edge="1" parent="1" source="ABQzy52q0oZLWMpHh-sN-2" target="ABQzy52q0oZLWMpHh-sN-5">
          <mxGeometry relative="1" as="geometry" />
        </mxCell>
        <mxCell id="ABQzy52q0oZLWMpHh-sN-2" value="CONFIRMAR" style="whiteSpace=wrap;html=1;fillColor=#ffe6cc;strokeColor=#d79b00;shadow=1;" vertex="1" parent="1">
          <mxGeometry x="160" y="25" width="120" height="60" as="geometry" />
        </mxCell>
        <mxCell id="-bjy3N2GDQrPV5YjcHJe-2" value="" style="edgeStyle=orthogonalEdgeStyle;rounded=0;orthogonalLoop=1;jettySize=auto;html=1;" edge="1" parent="1" source="ABQzy52q0oZLWMpHh-sN-5" target="-bjy3N2GDQrPV5YjcHJe-1">
          <mxGeometry relative="1" as="geometry" />
        </mxCell>
        <mxCell id="ABQzy52q0oZLWMpHh-sN-5" value="Dessasocia o cartão do funcionario e muda o status para cancelado." style="rounded=1;whiteSpace=wrap;html=1;fillColor=#dae8fc;strokeColor=#6c8ebf;shadow=1;" vertex="1" parent="1">
          <mxGeometry x="360" y="25" width="190" height="60" as="geometry" />
        </mxCell>
        <mxCell id="-bjy3N2GDQrPV5YjcHJe-1" value="FIM" style="ellipse;whiteSpace=wrap;html=1;fillColor=#f8cecc;strokeColor=#b85450;rounded=1;shadow=1;" vertex="1" parent="1">
          <mxGeometry x="670" y="22.5" width="75" height="65" as="geometry" />
        </mxCell>
        <mxCell id="iuOGarAx2Edt11CvBvV5-1" value="Banco de Dados" style="swimlane;fontStyle=0;childLayout=stackLayout;horizontal=1;startSize=60;horizontalStack=0;resizeParent=1;resizeParentMax=0;resizeLast=0;collapsible=1;marginBottom=0;shadow=1;fontSize=27;" vertex="1" parent="1">
          <mxGeometry x="850" y="20" width="330" height="120" as="geometry">
            <mxRectangle x="850" y="20" width="230" height="40" as="alternateBounds" />
          </mxGeometry>
        </mxCell>
        <mxCell id="iuOGarAx2Edt11CvBvV5-2" value="Tabela dos Cartões" style="text;strokeColor=none;fillColor=none;align=left;verticalAlign=middle;spacingLeft=4;spacingRight=4;overflow=hidden;points=[[0,0.5],[1,0.5]];portConstraint=eastwest;rotatable=0;shadow=1;fontSize=27;" vertex="1" parent="iuOGarAx2Edt11CvBvV5-1">
          <mxGeometry y="60" width="330" height="30" as="geometry" />
        </mxCell>
        <mxCell id="iuOGarAx2Edt11CvBvV5-3" value="Tabela dos Funcionarios" style="text;strokeColor=none;fillColor=none;align=left;verticalAlign=middle;spacingLeft=4;spacingRight=4;overflow=hidden;points=[[0,0.5],[1,0.5]];portConstraint=eastwest;rotatable=0;shadow=1;fontSize=27;" vertex="1" parent="iuOGarAx2Edt11CvBvV5-1">
          <mxGeometry y="90" width="330" height="30" as="geometry" />
        </mxCell>
      </root>
    </mxGraphModel>
  </diagram>
</mxfile>
